<mxfile host="app.diagrams.net" agent="Mozilla/5.0 (Macintosh; Intel Mac OS X 10_15_7) AppleWebKit/605.1.15 (KHTML, like Gecko) Version/18.4 Safari/605.1.15" version="28.0.7">
  <diagram name="Page-1" id="bdA8GqdW05c_GUF5dtp6">
    <mxGraphModel dx="757" dy="431" grid="0" gridSize="10" guides="1" tooltips="1" connect="1" arrows="1" fold="1" page="1" pageScale="1" pageWidth="1169" pageHeight="827" math="0" shadow="0">
      <root>
        <mxCell id="0" />
        <mxCell id="1" parent="0" />
        <mxCell id="eNb5HaGTE31p3M35cZ-F-33" value="" style="rounded=0;whiteSpace=wrap;html=1;fillColor=none;align=center;labelPosition=center;verticalLabelPosition=top;verticalAlign=middle;" parent="1" vertex="1">
          <mxGeometry x="428" y="119" width="644" height="337" as="geometry" />
        </mxCell>
        <mxCell id="eNb5HaGTE31p3M35cZ-F-45" style="edgeStyle=orthogonalEdgeStyle;rounded=0;orthogonalLoop=1;jettySize=auto;html=1;exitX=0.5;exitY=0;exitDx=0;exitDy=0;entryX=0.5;entryY=1;entryDx=0;entryDy=0;" parent="1" source="eNb5HaGTE31p3M35cZ-F-1" target="eNb5HaGTE31p3M35cZ-F-4" edge="1">
          <mxGeometry relative="1" as="geometry" />
        </mxCell>
        <mxCell id="eNb5HaGTE31p3M35cZ-F-49" style="edgeStyle=orthogonalEdgeStyle;rounded=0;orthogonalLoop=1;jettySize=auto;html=1;exitX=0.5;exitY=1;exitDx=0;exitDy=0;entryX=0;entryY=0.5;entryDx=0;entryDy=0;" parent="1" source="eNb5HaGTE31p3M35cZ-F-1" target="eNb5HaGTE31p3M35cZ-F-48" edge="1">
          <mxGeometry relative="1" as="geometry" />
        </mxCell>
        <mxCell id="IWyzGzTmUGrgQouWK2GI-14" style="edgeStyle=orthogonalEdgeStyle;rounded=0;orthogonalLoop=1;jettySize=auto;html=1;exitX=1;exitY=0.5;exitDx=0;exitDy=0;entryX=0;entryY=0.25;entryDx=0;entryDy=0;" edge="1" parent="1" source="eNb5HaGTE31p3M35cZ-F-1" target="eNb5HaGTE31p3M35cZ-F-12">
          <mxGeometry relative="1" as="geometry">
            <Array as="points">
              <mxPoint x="137" y="296" />
              <mxPoint x="137" y="351" />
            </Array>
          </mxGeometry>
        </mxCell>
        <mxCell id="IWyzGzTmUGrgQouWK2GI-16" value="damage per hazard" style="edgeLabel;html=1;align=center;verticalAlign=middle;resizable=0;points=[];" vertex="1" connectable="0" parent="IWyzGzTmUGrgQouWK2GI-14">
          <mxGeometry x="-0.005" y="-1" relative="1" as="geometry">
            <mxPoint x="1" y="-2" as="offset" />
          </mxGeometry>
        </mxCell>
        <mxCell id="eNb5HaGTE31p3M35cZ-F-1" value="User" style="ellipse;whiteSpace=wrap;html=1;aspect=fixed;" parent="1" vertex="1">
          <mxGeometry x="30" y="256" width="80" height="80" as="geometry" />
        </mxCell>
        <mxCell id="eNb5HaGTE31p3M35cZ-F-2" value="hazard" style="text;html=1;align=center;verticalAlign=middle;whiteSpace=wrap;rounded=0;" parent="1" vertex="1">
          <mxGeometry x="40" y="96" width="60" height="30" as="geometry" />
        </mxCell>
        <mxCell id="eNb5HaGTE31p3M35cZ-F-18" style="edgeStyle=orthogonalEdgeStyle;rounded=0;orthogonalLoop=1;jettySize=auto;html=1;entryX=0;entryY=0.5;entryDx=0;entryDy=0;startArrow=classic;startFill=1;" parent="1" source="eNb5HaGTE31p3M35cZ-F-2" target="eNb5HaGTE31p3M35cZ-F-16" edge="1">
          <mxGeometry relative="1" as="geometry" />
        </mxCell>
        <mxCell id="eNb5HaGTE31p3M35cZ-F-20" style="edgeStyle=orthogonalEdgeStyle;rounded=0;orthogonalLoop=1;jettySize=auto;html=1;exitX=1;exitY=0.5;exitDx=0;exitDy=0;entryX=0;entryY=0.5;entryDx=0;entryDy=0;startArrow=classic;startFill=1;" parent="1" source="eNb5HaGTE31p3M35cZ-F-3" target="eNb5HaGTE31p3M35cZ-F-16" edge="1">
          <mxGeometry relative="1" as="geometry" />
        </mxCell>
        <mxCell id="eNb5HaGTE31p3M35cZ-F-3" value="exposure" style="text;html=1;align=center;verticalAlign=middle;whiteSpace=wrap;rounded=0;" parent="1" vertex="1">
          <mxGeometry x="40" y="84" width="60" height="30" as="geometry" />
        </mxCell>
        <mxCell id="eNb5HaGTE31p3M35cZ-F-47" style="edgeStyle=orthogonalEdgeStyle;rounded=0;orthogonalLoop=1;jettySize=auto;html=1;exitX=1;exitY=1;exitDx=0;exitDy=0;" parent="1" source="eNb5HaGTE31p3M35cZ-F-4" target="eNb5HaGTE31p3M35cZ-F-5" edge="1">
          <mxGeometry relative="1" as="geometry" />
        </mxCell>
        <mxCell id="eNb5HaGTE31p3M35cZ-F-4" value="vulnerability" style="text;html=1;align=center;verticalAlign=middle;whiteSpace=wrap;rounded=0;" parent="1" vertex="1">
          <mxGeometry x="40" y="111" width="60" height="30" as="geometry" />
        </mxCell>
        <mxCell id="eNb5HaGTE31p3M35cZ-F-37" style="edgeStyle=orthogonalEdgeStyle;rounded=0;orthogonalLoop=1;jettySize=auto;html=1;exitX=0.178;exitY=-0.01;exitDx=0;exitDy=0;entryX=0.5;entryY=1;entryDx=0;entryDy=0;startArrow=classic;startFill=1;exitPerimeter=0;" parent="1" source="eNb5HaGTE31p3M35cZ-F-6" target="eNb5HaGTE31p3M35cZ-F-35" edge="1">
          <mxGeometry relative="1" as="geometry">
            <Array as="points" />
          </mxGeometry>
        </mxCell>
        <mxCell id="IWyzGzTmUGrgQouWK2GI-6" value="pd.dataframe" style="edgeLabel;html=1;align=center;verticalAlign=middle;resizable=0;points=[];" vertex="1" connectable="0" parent="eNb5HaGTE31p3M35cZ-F-37">
          <mxGeometry x="0.0932" y="1" relative="1" as="geometry">
            <mxPoint as="offset" />
          </mxGeometry>
        </mxCell>
        <mxCell id="eNb5HaGTE31p3M35cZ-F-54" style="edgeStyle=orthogonalEdgeStyle;rounded=0;orthogonalLoop=1;jettySize=auto;html=1;exitX=0.775;exitY=0.985;exitDx=0;exitDy=0;entryX=0.5;entryY=1;entryDx=0;entryDy=0;exitPerimeter=0;" parent="1" source="eNb5HaGTE31p3M35cZ-F-8" target="eNb5HaGTE31p3M35cZ-F-52" edge="1">
          <mxGeometry relative="1" as="geometry" />
        </mxCell>
        <mxCell id="IWyzGzTmUGrgQouWK2GI-5" value="pd.dataframe" style="edgeLabel;html=1;align=center;verticalAlign=middle;resizable=0;points=[];" vertex="1" connectable="0" parent="eNb5HaGTE31p3M35cZ-F-54">
          <mxGeometry x="-0.1846" y="1" relative="1" as="geometry">
            <mxPoint as="offset" />
          </mxGeometry>
        </mxCell>
        <mxCell id="IWyzGzTmUGrgQouWK2GI-9" style="edgeStyle=orthogonalEdgeStyle;rounded=0;orthogonalLoop=1;jettySize=auto;html=1;exitX=0.146;exitY=1;exitDx=0;exitDy=0;entryX=1;entryY=0.5;entryDx=0;entryDy=0;exitPerimeter=0;startArrow=classic;startFill=1;" edge="1" parent="1" source="eNb5HaGTE31p3M35cZ-F-8" target="eNb5HaGTE31p3M35cZ-F-9">
          <mxGeometry relative="1" as="geometry" />
        </mxCell>
        <mxCell id="IWyzGzTmUGrgQouWK2GI-10" value="csv file" style="edgeLabel;html=1;align=center;verticalAlign=middle;resizable=0;points=[];" vertex="1" connectable="0" parent="IWyzGzTmUGrgQouWK2GI-9">
          <mxGeometry x="-0.4292" y="-1" relative="1" as="geometry">
            <mxPoint as="offset" />
          </mxGeometry>
        </mxCell>
        <mxCell id="eNb5HaGTE31p3M35cZ-F-6" value="CAT bond simulation" style="swimlane;startSize=32;align=center;strokeColor=#FF0000;" parent="1" vertex="1">
          <mxGeometry x="716" y="327" width="146" height="100" as="geometry">
            <mxRectangle x="382" y="140" width="145" height="26" as="alternateBounds" />
          </mxGeometry>
        </mxCell>
        <mxCell id="eNb5HaGTE31p3M35cZ-F-8" value="Simulates CAT bonds&amp;nbsp;&lt;div&gt;based on one or multiple&amp;nbsp;&lt;/div&gt;&lt;div&gt;damage and payouts&amp;nbsp;&lt;/div&gt;&lt;div&gt;tables&lt;/div&gt;" style="text;html=1;align=left;verticalAlign=middle;resizable=0;points=[];autosize=1;strokeColor=none;fillColor=none;" parent="eNb5HaGTE31p3M35cZ-F-6" vertex="1">
          <mxGeometry x="3" y="32" width="153" height="68" as="geometry" />
        </mxCell>
        <mxCell id="eNb5HaGTE31p3M35cZ-F-31" style="edgeStyle=orthogonalEdgeStyle;rounded=0;orthogonalLoop=1;jettySize=auto;html=1;exitX=1;exitY=0.5;exitDx=0;exitDy=0;entryX=0.25;entryY=0;entryDx=0;entryDy=0;" parent="1" source="eNb5HaGTE31p3M35cZ-F-5" target="eNb5HaGTE31p3M35cZ-F-12" edge="1">
          <mxGeometry relative="1" as="geometry">
            <mxPoint x="338" y="278" as="targetPoint" />
          </mxGeometry>
        </mxCell>
        <mxCell id="IWyzGzTmUGrgQouWK2GI-17" value="damage per hazard" style="edgeLabel;html=1;align=center;verticalAlign=middle;resizable=0;points=[];" vertex="1" connectable="0" parent="eNb5HaGTE31p3M35cZ-F-31">
          <mxGeometry x="-0.368" y="-1" relative="1" as="geometry">
            <mxPoint x="-7" y="-3" as="offset" />
          </mxGeometry>
        </mxCell>
        <mxCell id="eNb5HaGTE31p3M35cZ-F-5" value="&lt;b&gt;climada_core&lt;/b&gt;" style="rounded=0;whiteSpace=wrap;html=1;" parent="1" vertex="1">
          <mxGeometry x="179" y="248" width="120" height="60" as="geometry" />
        </mxCell>
        <mxCell id="eNb5HaGTE31p3M35cZ-F-9" value="User storage" style="ellipse;whiteSpace=wrap;html=1;aspect=fixed;" parent="1" vertex="1">
          <mxGeometry x="585" y="533" width="80" height="80" as="geometry" />
        </mxCell>
        <mxCell id="eNb5HaGTE31p3M35cZ-F-32" style="edgeStyle=orthogonalEdgeStyle;rounded=0;orthogonalLoop=1;jettySize=auto;html=1;exitX=0.478;exitY=1.017;exitDx=0;exitDy=0;entryX=0.75;entryY=0;entryDx=0;entryDy=0;startArrow=classic;startFill=1;exitPerimeter=0;" parent="1" source="eNb5HaGTE31p3M35cZ-F-11" target="eNb5HaGTE31p3M35cZ-F-6" edge="1">
          <mxGeometry relative="1" as="geometry" />
        </mxCell>
        <mxCell id="eNb5HaGTE31p3M35cZ-F-10" value="Pricing" style="swimlane;startSize=32;align=center;" parent="1" vertex="1">
          <mxGeometry x="889" y="147" width="130" height="82" as="geometry">
            <mxRectangle x="382" y="140" width="145" height="26" as="alternateBounds" />
          </mxGeometry>
        </mxCell>
        <mxCell id="eNb5HaGTE31p3M35cZ-F-11" value="Derives price based&amp;nbsp;&lt;div&gt;on expected loss and&lt;div&gt;other input variables&lt;/div&gt;&lt;/div&gt;" style="text;html=1;align=left;verticalAlign=middle;resizable=0;points=[];autosize=1;strokeColor=none;fillColor=none;" parent="eNb5HaGTE31p3M35cZ-F-10" vertex="1">
          <mxGeometry x="3" y="28" width="131" height="54" as="geometry" />
        </mxCell>
        <mxCell id="eNb5HaGTE31p3M35cZ-F-30" style="edgeStyle=orthogonalEdgeStyle;rounded=0;orthogonalLoop=1;jettySize=auto;html=1;exitX=1;exitY=0.25;exitDx=0;exitDy=0;entryX=0;entryY=0.25;entryDx=0;entryDy=0;" parent="1" source="eNb5HaGTE31p3M35cZ-F-12" target="eNb5HaGTE31p3M35cZ-F-6" edge="1">
          <mxGeometry relative="1" as="geometry" />
        </mxCell>
        <mxCell id="IWyzGzTmUGrgQouWK2GI-1" value="pd.dataframe" style="edgeLabel;html=1;align=center;verticalAlign=middle;resizable=0;points=[];rotation=0;" vertex="1" connectable="0" parent="eNb5HaGTE31p3M35cZ-F-30">
          <mxGeometry x="0.0794" y="-1" relative="1" as="geometry">
            <mxPoint x="-5" y="-2" as="offset" />
          </mxGeometry>
        </mxCell>
        <mxCell id="eNb5HaGTE31p3M35cZ-F-12" value="Payout vs Damage" style="swimlane;startSize=32;align=center;" parent="1" vertex="1">
          <mxGeometry x="457" y="327" width="134" height="96" as="geometry">
            <mxRectangle x="382" y="140" width="145" height="26" as="alternateBounds" />
          </mxGeometry>
        </mxCell>
        <mxCell id="eNb5HaGTE31p3M35cZ-F-13" value="Derives payouts based on&amp;nbsp;&lt;div&gt;damages (per subarea)&lt;/div&gt;" style="text;html=1;align=left;verticalAlign=middle;resizable=0;points=[];autosize=1;strokeColor=none;fillColor=none;" parent="eNb5HaGTE31p3M35cZ-F-12" vertex="1">
          <mxGeometry x="3" y="42" width="160" height="40" as="geometry" />
        </mxCell>
        <mxCell id="eNb5HaGTE31p3M35cZ-F-16" value="Gridder" style="swimlane;startSize=32;align=center;strokeColor=#FF0000;" parent="1" vertex="1">
          <mxGeometry x="468" y="169" width="142" height="82" as="geometry">
            <mxRectangle x="382" y="140" width="145" height="26" as="alternateBounds" />
          </mxGeometry>
        </mxCell>
        <mxCell id="eNb5HaGTE31p3M35cZ-F-17" value="Creates subareas and&amp;nbsp;&lt;div&gt;optimal TC boundary&lt;/div&gt;" style="text;html=1;align=left;verticalAlign=middle;resizable=0;points=[];autosize=1;strokeColor=none;fillColor=none;" parent="eNb5HaGTE31p3M35cZ-F-16" vertex="1">
          <mxGeometry x="3" y="35" width="139" height="40" as="geometry" />
        </mxCell>
        <mxCell id="eNb5HaGTE31p3M35cZ-F-34" value="&lt;b&gt;climada_petals_CAT_bonds&lt;/b&gt;" style="text;html=1;align=center;verticalAlign=middle;whiteSpace=wrap;rounded=0;" parent="1" vertex="1">
          <mxGeometry x="428" y="119" width="182" height="28" as="geometry" />
        </mxCell>
        <mxCell id="eNb5HaGTE31p3M35cZ-F-35" value="Risk Pooling" style="swimlane;startSize=32;align=center;strokeColor=#FF0000;" parent="1" vertex="1">
          <mxGeometry x="662" y="156" width="160" height="100" as="geometry">
            <mxRectangle x="382" y="140" width="145" height="26" as="alternateBounds" />
          </mxGeometry>
        </mxCell>
        <mxCell id="eNb5HaGTE31p3M35cZ-F-36" value="Takes loss data and&amp;nbsp;&lt;div&gt;create optimal risk diverse&lt;/div&gt;&lt;div&gt;pools&lt;/div&gt;" style="text;html=1;align=left;verticalAlign=middle;resizable=0;points=[];autosize=1;strokeColor=none;fillColor=none;" parent="eNb5HaGTE31p3M35cZ-F-35" vertex="1">
          <mxGeometry x="3" y="39" width="157" height="54" as="geometry" />
        </mxCell>
        <mxCell id="eNb5HaGTE31p3M35cZ-F-46" value="" style="edgeStyle=orthogonalEdgeStyle;rounded=0;orthogonalLoop=1;jettySize=auto;html=1;exitX=0.5;exitY=1;exitDx=0;exitDy=0;entryX=1;entryY=0.5;entryDx=0;entryDy=0;strokeColor=none;" parent="1" source="eNb5HaGTE31p3M35cZ-F-16" edge="1">
          <mxGeometry relative="1" as="geometry">
            <mxPoint x="514" y="251" as="sourcePoint" />
            <mxPoint x="398" y="278" as="targetPoint" />
          </mxGeometry>
        </mxCell>
        <mxCell id="IWyzGzTmUGrgQouWK2GI-18" style="edgeStyle=orthogonalEdgeStyle;rounded=0;orthogonalLoop=1;jettySize=auto;html=1;exitX=1;exitY=0.5;exitDx=0;exitDy=0;entryX=1;entryY=0.25;entryDx=0;entryDy=0;" edge="1" parent="1" source="eNb5HaGTE31p3M35cZ-F-48" target="eNb5HaGTE31p3M35cZ-F-10">
          <mxGeometry relative="1" as="geometry">
            <Array as="points">
              <mxPoint x="1115" y="663" />
              <mxPoint x="1115" y="168" />
            </Array>
          </mxGeometry>
        </mxCell>
        <mxCell id="eNb5HaGTE31p3M35cZ-F-48" value="CAT bond settings" style="text;html=1;align=center;verticalAlign=middle;whiteSpace=wrap;rounded=0;" parent="1" vertex="1">
          <mxGeometry x="438" y="648" width="60" height="30" as="geometry" />
        </mxCell>
        <mxCell id="eNb5HaGTE31p3M35cZ-F-50" style="edgeStyle=orthogonalEdgeStyle;rounded=0;orthogonalLoop=1;jettySize=auto;html=1;exitX=1;exitY=0.5;exitDx=0;exitDy=0;entryX=0.56;entryY=1.049;entryDx=0;entryDy=0;entryPerimeter=0;" parent="1" source="eNb5HaGTE31p3M35cZ-F-48" target="eNb5HaGTE31p3M35cZ-F-8" edge="1">
          <mxGeometry relative="1" as="geometry" />
        </mxCell>
        <mxCell id="IWyzGzTmUGrgQouWK2GI-7" value="Class" style="edgeLabel;html=1;align=center;verticalAlign=middle;resizable=0;points=[];" vertex="1" connectable="0" parent="eNb5HaGTE31p3M35cZ-F-50">
          <mxGeometry x="-0.2903" y="-1" relative="1" as="geometry">
            <mxPoint y="-1" as="offset" />
          </mxGeometry>
        </mxCell>
        <mxCell id="eNb5HaGTE31p3M35cZ-F-52" value="Finance" style="swimlane;startSize=32;align=center;" parent="1" vertex="1">
          <mxGeometry x="910" y="325" width="148" height="75" as="geometry">
            <mxRectangle x="382" y="140" width="145" height="26" as="alternateBounds" />
          </mxGeometry>
        </mxCell>
        <mxCell id="eNb5HaGTE31p3M35cZ-F-53" value="Derive financial metrics&amp;nbsp;&lt;div&gt;like efficient frontier.&lt;/div&gt;" style="text;html=1;align=left;verticalAlign=middle;resizable=0;points=[];autosize=1;strokeColor=none;fillColor=none;" parent="eNb5HaGTE31p3M35cZ-F-52" vertex="1">
          <mxGeometry x="3" y="34" width="145" height="40" as="geometry" />
        </mxCell>
        <mxCell id="IWyzGzTmUGrgQouWK2GI-2" value="numpy.float64" style="edgeLabel;html=1;align=center;verticalAlign=middle;resizable=0;points=[];rotation=0;" vertex="1" connectable="0" parent="1">
          <mxGeometry x="895" y="276" as="geometry" />
        </mxCell>
        <mxCell id="IWyzGzTmUGrgQouWK2GI-3" style="edgeStyle=orthogonalEdgeStyle;rounded=0;orthogonalLoop=1;jettySize=auto;html=1;entryX=0.75;entryY=0;entryDx=0;entryDy=0;" edge="1" parent="1" target="eNb5HaGTE31p3M35cZ-F-12">
          <mxGeometry relative="1" as="geometry">
            <mxPoint x="558" y="253" as="sourcePoint" />
            <mxPoint x="716" y="296.25" as="targetPoint" />
          </mxGeometry>
        </mxCell>
        <mxCell id="IWyzGzTmUGrgQouWK2GI-4" value="geodataframe" style="edgeLabel;html=1;align=center;verticalAlign=middle;resizable=0;points=[];rotation=0;" vertex="1" connectable="0" parent="IWyzGzTmUGrgQouWK2GI-3">
          <mxGeometry x="0.0794" y="-1" relative="1" as="geometry">
            <mxPoint as="offset" />
          </mxGeometry>
        </mxCell>
        <mxCell id="IWyzGzTmUGrgQouWK2GI-11" value="computational intensive" style="rounded=0;whiteSpace=wrap;html=1;fillColor=none;strokeColor=#FF0000;" vertex="1" parent="1">
          <mxGeometry x="1015" y="725" width="120" height="60" as="geometry" />
        </mxCell>
      </root>
    </mxGraphModel>
  </diagram>
</mxfile>
